<svg xmlns="http://www.w3.org/2000/svg" xmlns:xlink="http://www.w3.org/1999/xlink" width="1500" zoomAndPan="magnify" viewBox="0 0 1125 1124.99995" height="1500" preserveAspectRatio="xMidYMid meet" version="1.0"><defs><clipPath id="21926390b4"><path d="M 165 211 L 683 211 L 683 752 L 165 752 Z M 165 211 " clip-rule="nonzero"/></clipPath><clipPath id="c69df1ff25"><path d="M 415.28125 89.183594 L 723.757812 239.441406 L 421.035156 860.945312 L 112.554688 710.691406 Z M 415.28125 89.183594 " clip-rule="nonzero"/></clipPath><clipPath id="a32bab1ba8"><path d="M 415.28125 89.183594 L 723.757812 239.441406 L 421.035156 860.945312 L 112.554688 710.691406 Z M 415.28125 89.183594 " clip-rule="nonzero"/></clipPath><clipPath id="40df44647d"><path d="M 160 206 L 688 206 L 688 756.75 L 160 756.75 Z M 160 206 " clip-rule="nonzero"/></clipPath><clipPath id="e45838966e"><path d="M 415.28125 89.183594 L 723.757812 239.441406 L 421.035156 860.945312 L 112.554688 710.691406 Z M 415.28125 89.183594 " clip-rule="nonzero"/></clipPath><clipPath id="c6b6cdb019"><path d="M 415.28125 89.183594 L 723.757812 239.441406 L 421.035156 860.945312 L 112.554688 710.691406 Z M 415.28125 89.183594 " clip-rule="nonzero"/></clipPath><clipPath id="7b0e93ea64"><path d="M 667 692 L 687.75 692 L 687.75 705.75 L 667 705.75 Z M 667 692 " clip-rule="nonzero"/></clipPath><clipPath id="c3cf362a79"><path d="M 441.542969 706.230469 L 617.851562 474.953125 L 905.042969 693.886719 L 728.734375 925.164062 Z M 441.542969 706.230469 " clip-rule="nonzero"/></clipPath><clipPath id="d71ddb9e0c"><path d="M 441.542969 706.230469 L 617.851562 474.953125 L 905.042969 693.886719 L 728.734375 925.164062 Z M 441.542969 706.230469 " clip-rule="nonzero"/></clipPath><clipPath id="ad1cc3d277"><path d="M 441.542969 706.230469 L 617.851562 474.953125 L 905.042969 693.886719 L 728.734375 925.164062 Z M 441.542969 706.230469 " clip-rule="nonzero"/></clipPath><clipPath id="6c279f7013"><path d="M 718.5 659 L 858.75 659 L 858.75 768.75 L 718.5 768.75 Z M 718.5 659 " clip-rule="nonzero"/></clipPath><clipPath id="07cb45237b"><path d="M 441.542969 706.230469 L 617.851562 474.953125 L 905.042969 693.886719 L 728.734375 925.164062 Z M 441.542969 706.230469 " clip-rule="nonzero"/></clipPath><clipPath id="825c2c64a4"><path d="M 441.542969 706.230469 L 617.851562 474.953125 L 905.042969 693.886719 L 728.734375 925.164062 Z M 441.542969 706.230469 " clip-rule="nonzero"/></clipPath><clipPath id="114135d1ad"><path d="M 441.542969 706.230469 L 617.851562 474.953125 L 905.042969 693.886719 L 728.734375 925.164062 Z M 441.542969 706.230469 " clip-rule="nonzero"/></clipPath><clipPath id="3d8cc30e3f"><path d="M 621 711 L 732.75 711 L 732.75 863.25 L 621 863.25 Z M 621 711 " clip-rule="nonzero"/></clipPath><clipPath id="c4123ce697"><path d="M 441.542969 706.230469 L 617.851562 474.953125 L 905.042969 693.886719 L 728.734375 925.164062 Z M 441.542969 706.230469 " clip-rule="nonzero"/></clipPath><clipPath id="5078e58bc9"><path d="M 441.542969 706.230469 L 617.851562 474.953125 L 905.042969 693.886719 L 728.734375 925.164062 Z M 441.542969 706.230469 " clip-rule="nonzero"/></clipPath><clipPath id="2dedfd87f2"><path d="M 441.542969 706.230469 L 617.851562 474.953125 L 905.042969 693.886719 L 728.734375 925.164062 Z M 441.542969 706.230469 " clip-rule="nonzero"/></clipPath><clipPath id="98a7a463ae"><path d="M 531 605 L 718 605 L 718 690 L 531 690 Z M 531 605 " clip-rule="nonzero"/></clipPath><clipPath id="646b3e4b33"><path d="M 441.542969 706.230469 L 617.851562 474.953125 L 905.042969 693.886719 L 728.734375 925.164062 Z M 441.542969 706.230469 " clip-rule="nonzero"/></clipPath><clipPath id="53754b133b"><path d="M 441.542969 706.230469 L 617.851562 474.953125 L 905.042969 693.886719 L 728.734375 925.164062 Z M 441.542969 706.230469 " clip-rule="nonzero"/></clipPath><clipPath id="e9d492539a"><path d="M 441.542969 706.230469 L 617.851562 474.953125 L 905.042969 693.886719 L 728.734375 925.164062 Z M 441.542969 706.230469 " clip-rule="nonzero"/></clipPath><clipPath id="f7bfc60fcc"><path d="M 669 664 L 681 664 L 681 675 L 669 675 Z M 669 664 " clip-rule="nonzero"/></clipPath><clipPath id="742880e4da"><path d="M 441.542969 706.230469 L 617.851562 474.953125 L 905.042969 693.886719 L 728.734375 925.164062 Z M 441.542969 706.230469 " clip-rule="nonzero"/></clipPath><clipPath id="9a0f9ac3f1"><path d="M 441.542969 706.230469 L 617.851562 474.953125 L 905.042969 693.886719 L 728.734375 925.164062 Z M 441.542969 706.230469 " clip-rule="nonzero"/></clipPath><clipPath id="7ab881ef67"><path d="M 441.542969 706.230469 L 617.851562 474.953125 L 905.042969 693.886719 L 728.734375 925.164062 Z M 441.542969 706.230469 " clip-rule="nonzero"/></clipPath><clipPath id="52b7985d63"><path d="M 653.25 519.75 L 702 519.75 L 702 654.75 L 653.25 654.75 Z M 653.25 519.75 " clip-rule="nonzero"/></clipPath><clipPath id="cdd5665ecf"><path d="M 441.542969 706.230469 L 617.851562 474.953125 L 905.042969 693.886719 L 728.734375 925.164062 Z M 441.542969 706.230469 " clip-rule="nonzero"/></clipPath><clipPath id="c82dfb6793"><path d="M 441.542969 706.230469 L 617.851562 474.953125 L 905.042969 693.886719 L 728.734375 925.164062 Z M 441.542969 706.230469 " clip-rule="nonzero"/></clipPath><clipPath id="9ebc382665"><path d="M 441.542969 706.230469 L 617.851562 474.953125 L 905.042969 693.886719 L 728.734375 925.164062 Z M 441.542969 706.230469 " clip-rule="nonzero"/></clipPath><clipPath id="61f31b9ac3"><path d="M 521.25 510.75 L 866 510.75 L 866 873.75 L 521.25 873.75 Z M 521.25 510.75 " clip-rule="nonzero"/></clipPath><clipPath id="2cbaa6dcc2"><path d="M 441.542969 706.230469 L 617.851562 474.953125 L 905.042969 693.886719 L 728.734375 925.164062 Z M 441.542969 706.230469 " clip-rule="nonzero"/></clipPath><clipPath id="c97c48e576"><path d="M 441.542969 706.230469 L 617.851562 474.953125 L 905.042969 693.886719 L 728.734375 925.164062 Z M 441.542969 706.230469 " clip-rule="nonzero"/></clipPath><clipPath id="ec6bad5652"><path d="M 441.542969 706.230469 L 617.851562 474.953125 L 905.042969 693.886719 L 728.734375 925.164062 Z M 441.542969 706.230469 " clip-rule="nonzero"/></clipPath><clipPath id="11eb907076"><path d="M 637 767.25 L 711.75 767.25 L 711.75 845 L 637 845 Z M 637 767.25 " clip-rule="nonzero"/></clipPath><clipPath id="1b354c6e5c"><path d="M 441.542969 706.230469 L 617.851562 474.953125 L 905.042969 693.886719 L 728.734375 925.164062 Z M 441.542969 706.230469 " clip-rule="nonzero"/></clipPath><clipPath id="6fbca9b661"><path d="M 441.542969 706.230469 L 617.851562 474.953125 L 905.042969 693.886719 L 728.734375 925.164062 Z M 441.542969 706.230469 " clip-rule="nonzero"/></clipPath><clipPath id="e928907ab4"><path d="M 441.542969 706.230469 L 617.851562 474.953125 L 905.042969 693.886719 L 728.734375 925.164062 Z M 441.542969 706.230469 " clip-rule="nonzero"/></clipPath><clipPath id="348b2aecdd"><path d="M 767.25 678.75 L 840.75 678.75 L 840.75 750.75 L 767.25 750.75 Z M 767.25 678.75 " clip-rule="nonzero"/></clipPath><clipPath id="d606c23e4b"><path d="M 441.542969 706.230469 L 617.851562 474.953125 L 905.042969 693.886719 L 728.734375 925.164062 Z M 441.542969 706.230469 " clip-rule="nonzero"/></clipPath><clipPath id="c204ef96d5"><path d="M 441.542969 706.230469 L 617.851562 474.953125 L 905.042969 693.886719 L 728.734375 925.164062 Z M 441.542969 706.230469 " clip-rule="nonzero"/></clipPath><clipPath id="522e0e12c3"><path d="M 441.542969 706.230469 L 617.851562 474.953125 L 905.042969 693.886719 L 728.734375 925.164062 Z M 441.542969 706.230469 " clip-rule="nonzero"/></clipPath><clipPath id="2eaab7a89b"><path d="M 663.75 658.5 L 686 658.5 L 686 680 L 663.75 680 Z M 663.75 658.5 " clip-rule="nonzero"/></clipPath><clipPath id="6af5d0900d"><path d="M 441.542969 706.230469 L 617.851562 474.953125 L 905.042969 693.886719 L 728.734375 925.164062 Z M 441.542969 706.230469 " clip-rule="nonzero"/></clipPath><clipPath id="8819f7aa0d"><path d="M 441.542969 706.230469 L 617.851562 474.953125 L 905.042969 693.886719 L 728.734375 925.164062 Z M 441.542969 706.230469 " clip-rule="nonzero"/></clipPath><clipPath id="141cdece39"><path d="M 441.542969 706.230469 L 617.851562 474.953125 L 905.042969 693.886719 L 728.734375 925.164062 Z M 441.542969 706.230469 " clip-rule="nonzero"/></clipPath></defs><rect x="-112.5" width="1350" fill="#ffffff" y="-112.499995" height="1349.99994" fill-opacity="1"/><rect x="-112.5" width="1350" fill="#ffffff" y="-112.499995" height="1349.99994" fill-opacity="1"/><g clip-path="url(#21926390b4)"><g clip-path="url(#c69df1ff25)"><g clip-path="url(#a32bab1ba8)"><path fill="#0025cc" d="M 601.234375 448.269531 C 605.238281 452.683594 605.394531 459.089844 601.574219 462.792969 L 335.03125 720.988281 C 293.730469 760.996094 229.601562 761.8125 191.808594 722.789062 C 154.015625 683.765625 156.863281 619.703125 198.164062 579.695312 L 554.746094 234.25 C 585.917969 204.0625 634.292969 203.453125 662.816406 232.886719 C 691.339844 262.324219 689.195312 310.667969 658.03125 340.855469 L 375.347656 614.683594 C 355.015625 634.382812 328.65625 631.464844 310.058594 612.261719 C 291.453125 593.054688 286.714844 560.222656 307.046875 540.523438 L 488.582031 364.671875 C 492.648438 360.734375 499.375 360.808594 504.261719 364.847656 C 509.53125 369.195312 510.3125 376.785156 505.933594 381.027344 L 331.246094 550.246094 C 319.8125 561.320312 319.09375 575.832031 332.921875 590.101562 C 346.738281 604.363281 360.933594 596.136719 372.363281 585.0625 L 642.949219 322.949219 C 688.683594 278.648438 618.214844 205.894531 576.289062 246.507812 L 212.503906 603.050781 C 143.902344 669.507812 245.5625 774.449219 310.351562 711.683594 L 583.753906 446.640625 C 588.414062 442.128906 596.335938 442.855469 601.21875 448.234375 Z M 601.234375 448.269531 " fill-opacity="1" fill-rule="nonzero"/></g></g></g><g clip-path="url(#40df44647d)"><g clip-path="url(#e45838966e)"><g clip-path="url(#c6b6cdb019)"><path fill="#000000" d="M 215.867188 746.417969 C 205.628906 741.429688 196.269531 734.675781 188.152344 726.304688 C 168.890625 706.421875 158.976562 679.820312 160.238281 651.378906 C 161.488281 623.054688 173.703125 596.300781 194.621094 576.039062 L 551.230469 230.605469 C 584.34375 198.519531 636.058594 197.976562 666.460938 229.367188 C 681.238281 244.617188 688.84375 265.023438 687.871094 286.808594 C 686.914062 308.5 677.5625 328.980469 661.550781 344.496094 L 378.871094 618.324219 C 368.078125 628.789062 355.234375 633.90625 341.765625 633.121094 C 329.097656 632.390625 316.539062 626.230469 306.425781 615.789062 C 296.347656 605.390625 289.96875 591.234375 288.902344 576.953125 C 287.746094 561.363281 292.949219 547.140625 303.535156 536.886719 L 485.074219 361.035156 C 490.976562 355.308594 500.664062 355.28125 507.5 360.941406 C 511.339844 364.113281 513.652344 368.683594 513.847656 373.480469 C 514.011719 377.800781 512.464844 381.777344 509.480469 384.671875 L 334.792969 553.890625 C 329.992188 558.539062 327.609375 563.589844 327.695312 568.898438 C 327.792969 574.65625 330.785156 580.609375 336.566406 586.582031 C 341.628906 591.804688 346.636719 593.578125 352.335938 592.171875 C 357.242188 590.957031 362.652344 587.4375 368.855469 581.429688 L 639.4375 319.3125 C 660.839844 298.574219 653.554688 271.550781 637.738281 255.214844 C 623.03125 240.039062 598.625 231.953125 579.828125 250.140625 L 216.066406 606.671875 C 182.867188 638.835938 192.832031 679.371094 216.140625 703.433594 C 238.414062 726.429688 276.285156 737.652344 306.851562 708.050781 L 580.257812 443.007812 C 583.316406 440.046875 587.425781 438.492188 591.835938 438.636719 C 596.757812 438.792969 601.527344 441.058594 604.976562 444.84375 C 610.84375 451.304688 610.902344 460.78125 605.09375 466.40625 L 338.554688 724.605469 C 317.648438 744.871094 290.511719 756.214844 262.164062 756.566406 C 245.691406 756.773438 229.945312 753.257812 215.871094 746.40625 Z M 640.875 223.132812 C 614.828125 210.445312 581.449219 215.453125 558.28125 237.894531 L 201.6875 583.339844 C 182.632812 601.777344 171.519531 626.113281 170.378906 651.839844 C 169.246094 677.464844 178.152344 701.410156 195.453125 719.265625 C 212.738281 737.121094 236.402344 746.792969 262.050781 746.472656 C 287.804688 746.160156 312.480469 735.8125 331.519531 717.367188 L 598.058594 459.167969 C 599.882812 457.402344 599.632812 454.046875 597.484375 451.695312 C 595.867188 449.929688 593.699219 448.871094 591.53125 448.792969 C 590.359375 448.757812 588.671875 448.992188 587.300781 450.320312 L 313.894531 715.367188 C 279.917969 748.28125 235.324219 737.828125 208.882812 710.519531 C 182.175781 682.949219 170.820312 636.4375 209.007812 599.453125 L 572.757812 242.917969 C 595.511719 220.867188 626.324219 228.890625 645.011719 248.195312 C 664.835938 268.664062 671.710938 302.175781 646.488281 326.617188 L 375.902344 588.730469 C 368.375 596.023438 361.460938 600.382812 354.769531 602.03125 C 345.480469 604.328125 336.90625 601.503906 329.296875 593.644531 C 321.660156 585.757812 317.714844 577.503906 317.574219 569.085938 C 317.429688 560.976562 320.957031 553.21875 327.753906 546.636719 L 502.441406 377.414062 C 503.585938 376.3125 503.769531 374.902344 503.734375 373.90625 C 503.652344 371.980469 502.6875 370.117188 501.058594 368.777344 C 498.167969 366.402344 494.328125 366.210938 492.121094 368.335938 L 310.585938 544.1875 C 302.195312 552.308594 298.082031 563.699219 299.015625 576.226562 C 299.894531 588.179688 305.261719 600.03125 313.714844 608.761719 C 322.066406 617.382812 332.25 622.445312 342.375 623.03125 C 352.941406 623.65625 363.144531 619.519531 371.851562 611.082031 L 654.535156 337.253906 C 668.679688 323.558594 676.929688 305.492188 677.777344 286.402344 C 678.613281 267.414062 672.027344 249.667969 659.207031 236.4375 C 653.785156 230.847656 647.582031 226.414062 640.890625 223.15625 Z M 640.875 223.132812 " fill-opacity="1" fill-rule="nonzero"/></g></g></g><g clip-path="url(#7b0e93ea64)"><g clip-path="url(#c3cf362a79)"><g clip-path="url(#d71ddb9e0c)"><g clip-path="url(#ad1cc3d277)"><path fill="#c7c3e6" d="M 676.664062 694.691406 C 672.117188 696.945312 670.21875 697.347656 669.40625 697.515625 C 668.859375 697.632812 668.175781 697.777344 667.667969 698.449219 C 667.457031 698.722656 667.320312 699.03125 667.246094 699.394531 C 666.8125 701.441406 667.222656 703.398438 668.304688 704.5 C 669.023438 705.226562 669.988281 705.539062 670.953125 705.351562 C 676.21875 704.332031 679.324219 704.632812 681.378906 704.832031 C 683.183594 705.007812 684.886719 705.171875 686.046875 703.648438 C 686.96875 702.441406 687.15625 700.640625 687.605469 696.285156 L 687.707031 695.300781 C 687.828125 694.183594 687.414062 693.207031 686.574219 692.621094 C 685.859375 692.125 684.1875 690.960938 676.664062 694.691406 Z M 676.664062 694.691406 " fill-opacity="1" fill-rule="nonzero"/></g></g></g></g><g clip-path="url(#6c279f7013)"><g clip-path="url(#07cb45237b)"><g clip-path="url(#825c2c64a4)"><g clip-path="url(#114135d1ad)"><path fill="#eb4b36" d="M 767.554688 744.320312 C 788.992188 765.386719 806.96875 768.839844 818.269531 768.03125 C 829.96875 767.191406 840.507812 761.351562 847.949219 751.589844 C 855.90625 741.15625 859.679688 727.058594 858.308594 712.902344 C 857.242188 701.890625 852.632812 685.707031 836.722656 671.136719 L 836.640625 671.066406 C 822.90625 659.910156 807.25 656.699219 788.792969 661.234375 C 779.5 663.507812 773.488281 668.265625 767.675781 672.871094 C 763.394531 676.257812 759.351562 679.457031 754.070312 681.726562 C 747.261719 684.632812 742.28125 681.328125 738.28125 678.671875 C 735.851562 677.0625 733.757812 675.671875 731.597656 675.964844 C 727.910156 676.46875 725.125 679.210938 723.4375 681.421875 C 721.738281 683.648438 720.351562 686.421875 719.625 689.035156 C 716.722656 699.640625 720.664062 701.765625 727.199219 705.285156 C 732.976562 708.394531 741.703125 713.097656 752.285156 726.703125 C 755.59375 730.949219 763.75 740.53125 767.554688 744.320312 Z M 818.253906 685.644531 C 830.972656 692.855469 842.449219 709.464844 837.59375 728.878906 C 836.488281 733.285156 834.765625 737.042969 832.46875 740.054688 C 824.757812 750.167969 810.316406 751.609375 794.777344 743.8125 C 782.007812 737.394531 772.867188 727.003906 770.335938 716.007812 C 768.503906 708.082031 770.1875 700.414062 775.203125 693.835938 C 776.082031 692.683594 777.074219 691.550781 778.148438 690.476562 C 791.148438 677.515625 807.390625 679.484375 818.253906 685.644531 Z M 818.253906 685.644531 " fill-opacity="1" fill-rule="nonzero"/></g></g></g></g><g clip-path="url(#3d8cc30e3f)"><g clip-path="url(#c4123ce697)"><g clip-path="url(#5078e58bc9)"><g clip-path="url(#2dedfd87f2)"><path fill="#eb4b36" d="M 661.261719 735.460938 C 660.796875 739.785156 659.441406 743.300781 656.992188 746.511719 C 654.277344 750.074219 650.417969 752.953125 646.335938 756 C 641.257812 759.789062 635.503906 764.082031 630.476562 770.679688 C 627.53125 774.539062 625.152344 778.75 623.1875 783.554688 C 620.191406 790.867188 622.09375 800.144531 624.109375 809.964844 C 624.765625 813.179688 625.449219 816.507812 625.957031 819.777344 C 628.839844 839.769531 643.394531 855.636719 663.941406 861.191406 C 685.597656 867.042969 708.09375 860.125 721.238281 843.589844 C 721.59375 843.15625 721.945312 842.714844 722.285156 842.265625 C 729.273438 833.101562 732.648438 821.457031 732.039062 808.597656 C 731.355469 794.125 725.78125 779.042969 715.46875 763.773438 C 699.125 739.550781 697.480469 730.945312 696.273438 724.664062 C 695.738281 721.855469 695.230469 719.207031 693.644531 715.882812 C 691.417969 711.183594 686.96875 711.34375 683.042969 711.480469 C 682.332031 711.507812 681.601562 711.53125 680.863281 711.53125 C 675.851562 711.542969 670.1875 713.964844 666.359375 715.785156 C 665.351562 716.265625 664.5 716.957031 663.824219 717.839844 C 661.742188 720.570312 661.660156 724.585938 661.566406 729.238281 C 661.523438 731.273438 661.480469 733.375 661.261719 735.460938 Z M 681.386719 842.558594 C 672.4375 843.308594 663.570312 839.839844 655.761719 832.539062 C 644.511719 821.804688 632.640625 799.664062 642.894531 786.214844 C 643.058594 786.003906 643.222656 785.792969 643.441406 785.527344 C 651.460938 775.0625 666.042969 765.855469 679.121094 770.359375 C 690.234375 774.179688 700.730469 777.789062 706.429688 793.324219 C 711.570312 806.972656 710.097656 820.601562 702.386719 830.71875 C 697.171875 837.554688 689.519531 841.871094 681.386719 842.558594 Z M 681.386719 842.558594 " fill-opacity="1" fill-rule="nonzero"/></g></g></g></g><g clip-path="url(#98a7a463ae)"><g clip-path="url(#646b3e4b33)"><g clip-path="url(#53754b133b)"><g clip-path="url(#e9d492539a)"><path fill="#c7c3e6" d="M 618.941406 635.703125 C 579.699219 621.5 542.636719 608.089844 536.03125 605.3125 L 535.949219 605.277344 L 535.863281 605.25 C 534.328125 604.773438 532.933594 605.113281 532.128906 606.164062 C 531.5 606.988281 531.355469 608.128906 531.742188 609.285156 C 539.4375 632.625 582.683594 652.152344 611.304688 665.074219 C 615.332031 666.894531 619.132812 668.609375 622.378906 670.136719 C 660.769531 688.507812 668.6875 690.847656 674.410156 688.925781 C 676.1875 688.3125 677.746094 687.699219 679.257812 687.105469 C 686.816406 684.132812 691.808594 682.167969 709.175781 687.003906 C 710.171875 687.28125 711.617188 687.285156 712.824219 685.703125 C 713.441406 684.890625 713.96875 683.734375 714.765625 681.980469 C 715.46875 680.433594 716.347656 678.511719 717.625 676.058594 C 718.019531 675.308594 718.050781 674.332031 717.714844 673.378906 C 717.355469 672.367188 716.65625 671.574219 715.753906 671.1875 C 703.105469 666.167969 660.320312 650.679688 618.941406 635.703125 Z M 684.085938 668.984375 C 684.207031 670.816406 683.65625 672.589844 682.496094 674.113281 C 680.933594 676.164062 678.386719 677.566406 675.503906 677.960938 C 671.878906 678.457031 668.6875 676.988281 666.96875 674.035156 C 665.246094 671.078125 665.464844 667.421875 667.519531 664.726562 C 668.867188 662.957031 670.902344 661.636719 673.574219 660.808594 C 676.15625 659.996094 677.777344 661.058594 679.652344 662.289062 C 680.054688 662.550781 680.441406 662.804688 680.832031 663.039062 C 682.582031 664.351562 683.84375 665.347656 684.085938 668.984375 Z M 684.085938 668.984375 " fill-opacity="1" fill-rule="nonzero"/></g></g></g></g><g clip-path="url(#f7bfc60fcc)"><g clip-path="url(#742880e4da)"><g clip-path="url(#9a0f9ac3f1)"><g clip-path="url(#7ab881ef67)"><path fill="#f5e38b" d="M 670.417969 666.46875 C 669.542969 667.609375 669.179688 668.957031 669.382812 670.246094 C 669.539062 671.214844 670.09375 672.621094 671.863281 673.839844 C 674.390625 675.582031 677.453125 674.296875 679.046875 672.203125 C 680.207031 670.683594 680.554688 668.871094 679.984375 667.347656 C 679.5625 666.226562 678.472656 664.769531 675.691406 664.203125 C 673.855469 663.828125 671.734375 664.738281 670.417969 666.46875 Z M 670.417969 666.46875 " fill-opacity="1" fill-rule="nonzero"/></g></g></g></g><g clip-path="url(#52b7985d63)"><g clip-path="url(#cdd5665ecf)"><g clip-path="url(#c82dfb6793)"><g clip-path="url(#9ebc382665)"><path fill="#c7c3e6" d="M 672.710938 642.5625 L 673.257812 642.746094 C 678.800781 644.660156 693.484375 651.589844 697.851562 653.671875 C 698.222656 653.847656 698.429688 653.921875 698.433594 653.921875 L 698.535156 653.949219 C 699.425781 654.15625 700.328125 653.828125 700.890625 653.089844 L 700.894531 653.089844 C 703.15625 650.121094 700.105469 633.246094 687.839844 580.886719 C 685.667969 571.597656 683.785156 563.574219 683.65625 562.269531 L 683.648438 562.171875 L 683.628906 562.070312 C 680.828125 548.699219 673.148438 530.667969 662.898438 522.675781 L 662.816406 522.613281 C 660.078125 520.714844 659.511719 520.449219 658.902344 520.246094 L 658.308594 522.003906 L 658.808594 520.210938 C 656.8125 519.507812 655.304688 520.304688 654.625 521.199219 C 654.371094 521.53125 654.195312 521.90625 654.109375 522.296875 C 651.628906 531.378906 665.34375 634.980469 665.691406 637.5625 C 665.964844 640.269531 669.546875 641.488281 672.710938 642.5625 Z M 672.710938 642.5625 " fill-opacity="1" fill-rule="nonzero"/></g></g></g></g><g clip-path="url(#61f31b9ac3)"><g clip-path="url(#2cbaa6dcc2)"><g clip-path="url(#c97c48e576)"><g clip-path="url(#ec6bad5652)"><path fill="#000000" d="M 622.144531 764.757812 C 634.542969 749.617188 641.476562 749.863281 648.246094 740.335938 C 653.558594 732.824219 649.671875 720.824219 656.144531 712.570312 C 657.242188 711.167969 658.667969 708.964844 658.40625 707.078125 C 657.078125 697.625 658.175781 696.6875 656.449219 695.828125 C 650.394531 693.167969 548.15625 657.789062 527.402344 621.214844 C 523.148438 613.867188 517.949219 602.539062 524.53125 598.5625 C 530.46875 594.851562 533.390625 590.832031 568.222656 604.222656 C 650.21875 634.667969 654.097656 634.761719 653.992188 630.78125 C 653.445312 624.960938 642.066406 561.601562 643.878906 521.5 C 644.402344 507.066406 671.394531 504.292969 683.84375 531.929688 C 693.191406 552.835938 704.417969 591.527344 708.527344 616.632812 C 713.96875 650.3125 710.222656 648.691406 710.699219 656.652344 C 710.792969 658.167969 709.972656 659.445312 722.863281 665 C 726.890625 666.742188 727.433594 664.773438 735.835938 667.410156 C 753.382812 672.917969 747.898438 675.480469 765.839844 662.828125 C 787.007812 647.882812 807.90625 645.039062 829.210938 653.039062 C 858.984375 664.128906 872.886719 707.925781 862 743.738281 C 850.679688 779.640625 818.171875 789.144531 778.730469 766.332031 C 758.886719 754.832031 746.804688 727.832031 726.507812 714.726562 C 715.902344 707.894531 713.617188 706.644531 711.230469 702.644531 C 709.054688 698.996094 708.25 694.996094 702.613281 694.101562 C 700.914062 693.832031 697.585938 693.25 696.859375 694.859375 C 690.84375 708.28125 699.339844 702.382812 703.222656 713.757812 C 707.4375 726.015625 709.914062 737.957031 723.417969 755.648438 C 746.195312 785.6875 750.867188 829.1875 725.800781 855.378906 C 700.652344 881.457031 653.113281 881.632812 628.199219 843.132812 C 614.898438 822.457031 603.152344 789.789062 622.144531 764.757812 Z M 719.804688 842.40625 C 733.363281 825.957031 735.988281 797.480469 713.933594 764.808594 C 690.390625 729.921875 696.976562 727.167969 691.96875 716.679688 C 689.933594 712.390625 685.574219 713.382812 680.867188 713.390625 C 676.382812 713.398438 671.195312 715.539062 667.15625 717.460938 C 662.304688 719.769531 663.945312 727.722656 663.109375 735.65625 C 660.753906 757.636719 636.625 755.546875 624.90625 784.257812 C 621.171875 793.359375 625.753906 806.398438 627.792969 819.507812 C 634.074219 863.054688 693.195312 875.886719 719.804688 842.40625 Z M 835.46875 672.507812 C 822.710938 662.148438 807.601562 658.523438 789.230469 663.039062 C 773.722656 666.835938 767.726562 677.882812 754.796875 683.433594 C 743.066406 688.445312 736.148438 677.21875 731.847656 677.804688 C 726.894531 678.476562 722.78125 684.609375 721.417969 689.527344 C 716.597656 707.113281 731.105469 696.449219 753.75 725.5625 C 757 729.734375 765.082031 739.238281 768.855469 742.996094 C 835.359375 808.347656 887.6875 720.332031 835.46875 672.507812 Z M 535.3125 607.023438 C 533.710938 606.523438 533.105469 607.503906 533.5 608.703125 C 542.03125 634.566406 597.53125 656.40625 623.183594 668.460938 C 659.664062 685.917969 668.628906 688.910156 673.808594 687.167969 C 684.636719 683.441406 688.269531 679.257812 709.671875 685.214844 C 711.738281 685.789062 711.902344 683.027344 715.984375 675.195312 C 716.320312 674.554688 715.84375 673.246094 715.070312 672.914062 C 690.390625 663.109375 548.917969 612.742188 535.3125 607.023438 Z M 661.761719 524.140625 C 658.742188 522.042969 658.597656 522.113281 658.195312 521.964844 C 656.804688 521.476562 656.003906 522.167969 655.914062 522.738281 C 653.679688 529.363281 665.269531 620.886719 667.535156 637.351562 C 667.671875 639.003906 671.347656 640.128906 673.859375 640.992188 C 680.433594 643.257812 698.929688 652.132812 698.960938 652.140625 C 704.292969 653.394531 682.324219 567.679688 681.8125 562.453125 C 679.222656 550.105469 671.945312 532.089844 661.761719 524.140625 Z M 685.863281 695.105469 C 686.148438 692.421875 680.382812 694.917969 677.488281 696.351562 C 669.890625 700.121094 669.226562 698.96875 669.0625 699.777344 C 668.59375 702.003906 669.445312 703.75 670.601562 703.527344 C 685.683594 700.609375 684.507812 708.074219 685.863281 695.105469 Z M 685.863281 695.105469 " fill-opacity="1" fill-rule="nonzero"/></g></g></g></g><g clip-path="url(#11eb907076)"><g clip-path="url(#1b354c6e5c)"><g clip-path="url(#6fbca9b661)"><g clip-path="url(#e928907ab4)"><path fill="#000000" d="M 641.96875 784.398438 C 650.765625 772.917969 666.050781 763.890625 679.726562 768.605469 C 691.460938 772.636719 702.292969 776.648438 708.167969 792.671875 C 722.59375 830.960938 683.980469 861.46875 654.476562 833.882812 C 642.894531 822.832031 629.726562 799.160156 641.96875 784.398438 Z M 696.074219 823.292969 C 709.09375 809.671875 688.738281 776.707031 674.21875 776.148438 C 657.984375 775.519531 645.761719 792.847656 653.570312 817.71875 C 658.164062 832.492188 680.617188 841.199219 696.074219 823.292969 Z M 696.074219 823.292969 " fill-opacity="1" fill-rule="nonzero"/></g></g></g></g><g clip-path="url(#348b2aecdd)"><g clip-path="url(#d606c23e4b)"><g clip-path="url(#c204ef96d5)"><g clip-path="url(#522e0e12c3)"><path fill="#000000" d="M 793.945312 745.46875 C 769.34375 733.113281 758.757812 707.261719 776.839844 689.160156 C 803.804688 662.273438 848.476562 693.007812 839.394531 729.332031 C 833.765625 751.765625 813.625 755.347656 793.945312 745.46875 Z M 818.949219 696.332031 C 805.003906 683.792969 785.472656 687.671875 776.238281 704.558594 C 770.589844 714.664062 786.394531 743.394531 814.234375 740.992188 C 833.617188 739.324219 837.019531 711.292969 818.949219 696.332031 Z M 818.949219 696.332031 " fill-opacity="1" fill-rule="nonzero"/></g></g></g></g><g clip-path="url(#2eaab7a89b)"><g clip-path="url(#6af5d0900d)"><g clip-path="url(#8819f7aa0d)"><g clip-path="url(#141cdece39)"><path fill="#000000" d="M 681.863281 661.492188 C 683.921875 663.035156 685.644531 664.46875 685.9375 668.863281 C 686.300781 674.304688 681.886719 678.953125 675.753906 679.800781 C 663.253906 681.507812 658.238281 663.625 673.023438 659.039062 C 677.136719 657.742188 679.546875 660.136719 681.863281 661.492188 Z M 672.917969 672.308594 C 676.453125 674.746094 681.878906 667.351562 675.320312 666.019531 C 672.769531 665.5 668.910156 669.554688 672.917969 672.308594 Z M 672.917969 672.308594 " fill-opacity="1" fill-rule="nonzero"/></g></g></g></g></svg>