<svg xmlns="http://www.w3.org/2000/svg" xmlns:xlink="http://www.w3.org/1999/xlink" width="1500" zoomAndPan="magnify" viewBox="0 0 1125 1124.99995" height="1500" preserveAspectRatio="xMidYMid meet" version="1.0"><defs><clipPath id="3e94f92890"><path d="M 19.164062 414.355469 L 264 414.355469 L 264 670 L 19.164062 670 Z M 19.164062 414.355469 " clip-rule="nonzero"/></clipPath><clipPath id="e09d41e48a"><path d="M 137.429688 356.914062 L 283.199219 427.914062 L 140.148438 721.59375 L -5.617188 650.59375 Z M 137.429688 356.914062 " clip-rule="nonzero"/></clipPath><clipPath id="e2d412a937"><path d="M 137.429688 356.914062 L 283.199219 427.914062 L 140.148438 721.59375 L -5.617188 650.59375 Z M 137.429688 356.914062 " clip-rule="nonzero"/></clipPath><clipPath id="0a7b08c2bc"><path d="M 16.683594 412 L 266.535156 412 L 266.535156 672.359375 L 16.683594 672.359375 Z M 16.683594 412 " clip-rule="nonzero"/></clipPath><clipPath id="81ddc143bb"><path d="M 137.429688 356.914062 L 283.199219 427.914062 L 140.148438 721.59375 L -5.617188 650.59375 Z M 137.429688 356.914062 " clip-rule="nonzero"/></clipPath><clipPath id="5a05e8d3a2"><path d="M 137.429688 356.914062 L 283.199219 427.914062 L 140.148438 721.59375 L -5.617188 650.59375 Z M 137.429688 356.914062 " clip-rule="nonzero"/></clipPath><clipPath id="9d7543d248"><path d="M 256.257812 641.703125 L 266.179688 641.703125 L 266.179688 648.257812 L 256.257812 648.257812 Z M 256.257812 641.703125 " clip-rule="nonzero"/></clipPath><clipPath id="170f98983b"><path d="M 149.839844 648.484375 L 233.152344 539.199219 L 368.859375 642.65625 L 285.546875 751.941406 Z M 149.839844 648.484375 " clip-rule="nonzero"/></clipPath><clipPath id="b21c2cab17"><path d="M 149.839844 648.484375 L 233.152344 539.199219 L 368.859375 642.65625 L 285.546875 751.941406 Z M 149.839844 648.484375 " clip-rule="nonzero"/></clipPath><clipPath id="2b2a5db153"><path d="M 149.839844 648.484375 L 233.152344 539.199219 L 368.859375 642.65625 L 285.546875 751.941406 Z M 149.839844 648.484375 " clip-rule="nonzero"/></clipPath><clipPath id="fc3d936bcf"><path d="M 280.710938 626 L 346.980469 626 L 346.980469 678 L 280.710938 678 Z M 280.710938 626 " clip-rule="nonzero"/></clipPath><clipPath id="d55fcf0e01"><path d="M 149.839844 648.484375 L 233.152344 539.199219 L 368.859375 642.65625 L 285.546875 751.941406 Z M 149.839844 648.484375 " clip-rule="nonzero"/></clipPath><clipPath id="ea445fdea3"><path d="M 149.839844 648.484375 L 233.152344 539.199219 L 368.859375 642.65625 L 285.546875 751.941406 Z M 149.839844 648.484375 " clip-rule="nonzero"/></clipPath><clipPath id="aabd68d251"><path d="M 149.839844 648.484375 L 233.152344 539.199219 L 368.859375 642.65625 L 285.546875 751.941406 Z M 149.839844 648.484375 " clip-rule="nonzero"/></clipPath><clipPath id="b31a4585b4"><path d="M 234.824219 650.738281 L 287.445312 650.738281 L 287.445312 722.683594 L 234.824219 722.683594 Z M 234.824219 650.738281 " clip-rule="nonzero"/></clipPath><clipPath id="11c4af4cce"><path d="M 149.839844 648.484375 L 233.152344 539.199219 L 368.859375 642.65625 L 285.546875 751.941406 Z M 149.839844 648.484375 " clip-rule="nonzero"/></clipPath><clipPath id="1d9dd07673"><path d="M 149.839844 648.484375 L 233.152344 539.199219 L 368.859375 642.65625 L 285.546875 751.941406 Z M 149.839844 648.484375 " clip-rule="nonzero"/></clipPath><clipPath id="1890bac80d"><path d="M 149.839844 648.484375 L 233.152344 539.199219 L 368.859375 642.65625 L 285.546875 751.941406 Z M 149.839844 648.484375 " clip-rule="nonzero"/></clipPath><clipPath id="940fd4d6b6"><path d="M 192.296875 600.414062 L 280.710938 600.414062 L 280.710938 640.816406 L 192.296875 640.816406 Z M 192.296875 600.414062 " clip-rule="nonzero"/></clipPath><clipPath id="2840925cf6"><path d="M 149.839844 648.484375 L 233.152344 539.199219 L 368.859375 642.65625 L 285.546875 751.941406 Z M 149.839844 648.484375 " clip-rule="nonzero"/></clipPath><clipPath id="8d3179f13a"><path d="M 149.839844 648.484375 L 233.152344 539.199219 L 368.859375 642.65625 L 285.546875 751.941406 Z M 149.839844 648.484375 " clip-rule="nonzero"/></clipPath><clipPath id="6a76e8f82c"><path d="M 149.839844 648.484375 L 233.152344 539.199219 L 368.859375 642.65625 L 285.546875 751.941406 Z M 149.839844 648.484375 " clip-rule="nonzero"/></clipPath><clipPath id="4557c8d482"><path d="M 257.320312 628.414062 L 262.992188 628.414062 L 262.992188 633.730469 L 257.320312 633.730469 Z M 257.320312 628.414062 " clip-rule="nonzero"/></clipPath><clipPath id="1075406bd4"><path d="M 149.839844 648.484375 L 233.152344 539.199219 L 368.859375 642.65625 L 285.546875 751.941406 Z M 149.839844 648.484375 " clip-rule="nonzero"/></clipPath><clipPath id="a36eb972c9"><path d="M 149.839844 648.484375 L 233.152344 539.199219 L 368.859375 642.65625 L 285.546875 751.941406 Z M 149.839844 648.484375 " clip-rule="nonzero"/></clipPath><clipPath id="e028ea55f7"><path d="M 149.839844 648.484375 L 233.152344 539.199219 L 368.859375 642.65625 L 285.546875 751.941406 Z M 149.839844 648.484375 " clip-rule="nonzero"/></clipPath><clipPath id="3af56b58ce"><path d="M 250 560.367188 L 272.914062 560.367188 L 272.914062 623.984375 L 250 623.984375 Z M 250 560.367188 " clip-rule="nonzero"/></clipPath><clipPath id="056ab77d57"><path d="M 149.839844 648.484375 L 233.152344 539.199219 L 368.859375 642.65625 L 285.546875 751.941406 Z M 149.839844 648.484375 " clip-rule="nonzero"/></clipPath><clipPath id="694a8e2ef5"><path d="M 149.839844 648.484375 L 233.152344 539.199219 L 368.859375 642.65625 L 285.546875 751.941406 Z M 149.839844 648.484375 " clip-rule="nonzero"/></clipPath><clipPath id="ff7fd102ee"><path d="M 149.839844 648.484375 L 233.152344 539.199219 L 368.859375 642.65625 L 285.546875 751.941406 Z M 149.839844 648.484375 " clip-rule="nonzero"/></clipPath><clipPath id="1ebe8c168d"><path d="M 187.503906 556.113281 L 350.527344 556.113281 L 350.527344 727.644531 L 187.503906 727.644531 Z M 187.503906 556.113281 " clip-rule="nonzero"/></clipPath><clipPath id="57610df025"><path d="M 149.839844 648.484375 L 233.152344 539.199219 L 368.859375 642.65625 L 285.546875 751.941406 Z M 149.839844 648.484375 " clip-rule="nonzero"/></clipPath><clipPath id="dc808a7b0c"><path d="M 149.839844 648.484375 L 233.152344 539.199219 L 368.859375 642.65625 L 285.546875 751.941406 Z M 149.839844 648.484375 " clip-rule="nonzero"/></clipPath><clipPath id="2f840f6456"><path d="M 149.839844 648.484375 L 233.152344 539.199219 L 368.859375 642.65625 L 285.546875 751.941406 Z M 149.839844 648.484375 " clip-rule="nonzero"/></clipPath><clipPath id="bfc84c7327"><path d="M 242.082031 677.320312 L 277.351562 677.320312 L 277.351562 714 L 242.082031 714 Z M 242.082031 677.320312 " clip-rule="nonzero"/></clipPath><clipPath id="ef12793672"><path d="M 149.839844 648.484375 L 233.152344 539.199219 L 368.859375 642.65625 L 285.546875 751.941406 Z M 149.839844 648.484375 " clip-rule="nonzero"/></clipPath><clipPath id="0628a05489"><path d="M 149.839844 648.484375 L 233.152344 539.199219 L 368.859375 642.65625 L 285.546875 751.941406 Z M 149.839844 648.484375 " clip-rule="nonzero"/></clipPath><clipPath id="b4c15dcc30"><path d="M 149.839844 648.484375 L 233.152344 539.199219 L 368.859375 642.65625 L 285.546875 751.941406 Z M 149.839844 648.484375 " clip-rule="nonzero"/></clipPath><clipPath id="0442af0cad"><path d="M 303.933594 635.5 L 338.480469 635.5 L 338.480469 669.523438 L 303.933594 669.523438 Z M 303.933594 635.5 " clip-rule="nonzero"/></clipPath><clipPath id="a964db4749"><path d="M 149.839844 648.484375 L 233.152344 539.199219 L 368.859375 642.65625 L 285.546875 751.941406 Z M 149.839844 648.484375 " clip-rule="nonzero"/></clipPath><clipPath id="7a1e214421"><path d="M 149.839844 648.484375 L 233.152344 539.199219 L 368.859375 642.65625 L 285.546875 751.941406 Z M 149.839844 648.484375 " clip-rule="nonzero"/></clipPath><clipPath id="017c5fce58"><path d="M 149.839844 648.484375 L 233.152344 539.199219 L 368.859375 642.65625 L 285.546875 751.941406 Z M 149.839844 648.484375 " clip-rule="nonzero"/></clipPath><clipPath id="a1ba088cba"><path d="M 254.839844 626 L 265.46875 626 L 265.46875 636.210938 L 254.839844 636.210938 Z M 254.839844 626 " clip-rule="nonzero"/></clipPath><clipPath id="1b627ffe1b"><path d="M 149.839844 648.484375 L 233.152344 539.199219 L 368.859375 642.65625 L 285.546875 751.941406 Z M 149.839844 648.484375 " clip-rule="nonzero"/></clipPath><clipPath id="4dca42fb19"><path d="M 149.839844 648.484375 L 233.152344 539.199219 L 368.859375 642.65625 L 285.546875 751.941406 Z M 149.839844 648.484375 " clip-rule="nonzero"/></clipPath><clipPath id="6a0f0f82ca"><path d="M 149.839844 648.484375 L 233.152344 539.199219 L 368.859375 642.65625 L 285.546875 751.941406 Z M 149.839844 648.484375 " clip-rule="nonzero"/></clipPath></defs><g clip-path="url(#3e94f92890)"><g clip-path="url(#e09d41e48a)"><g clip-path="url(#e2d412a937)"><path fill="#0025cc" d="M 225.300781 526.59375 C 227.191406 528.675781 227.265625 531.703125 225.457031 533.457031 L 99.511719 655.460938 C 79.992188 674.367188 49.691406 674.75 31.832031 656.3125 C 13.972656 637.871094 15.316406 607.597656 34.832031 588.695312 L 203.332031 425.460938 C 218.0625 411.195312 240.921875 410.90625 254.398438 424.816406 C 267.878906 438.726562 266.863281 461.566406 252.140625 475.832031 L 118.558594 605.226562 C 108.953125 614.535156 96.496094 613.15625 87.710938 604.082031 C 78.917969 595.007812 76.675781 579.492188 86.285156 570.1875 L 172.066406 487.089844 C 173.992188 485.226562 177.167969 485.261719 179.476562 487.171875 C 181.964844 489.226562 182.335938 492.8125 180.265625 494.816406 L 97.71875 574.777344 C 92.320312 580.011719 91.980469 586.867188 98.515625 593.613281 C 105.042969 600.351562 111.75 596.464844 117.148438 591.230469 L 245.007812 467.371094 C 266.621094 446.441406 233.320312 412.0625 213.511719 431.25 L 41.609375 599.730469 C 9.195312 631.132812 57.234375 680.722656 87.847656 651.0625 L 217.039062 525.820312 C 219.238281 523.691406 222.984375 524.035156 225.292969 526.574219 Z M 225.300781 526.59375 " fill-opacity="1" fill-rule="nonzero"/></g></g></g><g clip-path="url(#0a7b08c2bc)"><g clip-path="url(#81ddc143bb)"><g clip-path="url(#5a05e8d3a2)"><path fill="#000000" d="M 43.199219 667.476562 C 38.363281 665.121094 33.941406 661.929688 30.105469 657.972656 C 21.003906 648.578125 16.316406 636.007812 16.914062 622.566406 C 17.503906 609.183594 23.273438 596.542969 33.160156 586.96875 L 201.671875 423.738281 C 217.320312 408.578125 241.757812 408.316406 256.121094 423.152344 C 263.101562 430.355469 266.695312 440 266.238281 450.296875 C 265.785156 460.546875 261.367188 470.222656 253.800781 477.554688 L 120.226562 606.949219 C 115.125 611.894531 109.058594 614.3125 102.691406 613.9375 C 96.703125 613.59375 90.773438 610.683594 85.992188 605.75 C 81.230469 600.835938 78.214844 594.144531 77.710938 587.398438 C 77.164062 580.03125 79.625 573.3125 84.625 568.464844 L 170.410156 485.371094 C 173.199219 482.664062 177.777344 482.652344 181.007812 485.324219 C 182.820312 486.824219 183.914062 488.984375 184.007812 491.25 C 184.082031 493.289062 183.351562 495.171875 181.945312 496.539062 L 99.398438 576.503906 C 97.128906 578.695312 96.003906 581.085938 96.042969 583.59375 C 96.089844 586.3125 97.503906 589.125 100.234375 591.949219 C 102.625 594.417969 104.992188 595.253906 107.6875 594.589844 C 110.003906 594.019531 112.558594 592.351562 115.492188 589.511719 L 243.351562 465.65625 C 253.464844 455.859375 250.019531 443.085938 242.546875 435.363281 C 235.597656 428.199219 224.066406 424.375 215.183594 432.96875 L 43.292969 601.441406 C 27.605469 616.640625 32.3125 635.796875 43.332031 647.164062 C 53.855469 658.03125 71.746094 663.332031 86.195312 649.347656 L 215.386719 524.105469 C 216.832031 522.707031 218.777344 521.972656 220.859375 522.039062 C 223.183594 522.113281 225.4375 523.183594 227.066406 524.972656 C 229.839844 528.023438 229.867188 532.503906 227.125 535.160156 L 101.171875 657.167969 C 91.296875 666.746094 78.472656 672.105469 65.074219 672.273438 C 57.292969 672.371094 49.855469 670.707031 43.203125 667.46875 Z M 244.03125 420.207031 C 231.722656 414.210938 215.953125 416.578125 205 427.183594 L 36.5 590.414062 C 27.496094 599.128906 22.242188 610.628906 21.707031 622.785156 C 21.167969 634.890625 25.378906 646.207031 33.554688 654.648438 C 41.722656 663.085938 52.902344 667.652344 65.023438 667.5 C 77.191406 667.355469 88.851562 662.464844 97.851562 653.746094 L 223.800781 531.742188 C 224.660156 530.90625 224.542969 529.320312 223.527344 528.210938 C 222.761719 527.375 221.738281 526.875 220.714844 526.835938 C 220.160156 526.820312 219.363281 526.929688 218.714844 527.5625 L 89.523438 652.804688 C 73.464844 668.355469 52.394531 663.417969 39.898438 650.515625 C 27.28125 637.484375 21.914062 615.507812 39.960938 598.027344 L 211.84375 429.554688 C 222.597656 419.136719 237.152344 422.925781 245.984375 432.050781 C 255.355469 441.722656 258.601562 457.558594 246.683594 469.105469 L 118.824219 592.964844 C 115.265625 596.410156 112 598.46875 108.835938 599.25 C 104.445312 600.335938 100.394531 599 96.796875 595.285156 C 93.191406 591.5625 91.328125 587.660156 91.261719 583.679688 C 91.191406 579.847656 92.859375 576.183594 96.070312 573.074219 L 178.613281 493.109375 C 179.15625 492.589844 179.246094 491.925781 179.226562 491.453125 C 179.1875 490.542969 178.730469 489.664062 177.964844 489.027344 C 176.597656 487.90625 174.785156 487.816406 173.738281 488.820312 L 87.957031 571.917969 C 83.992188 575.753906 82.050781 581.136719 82.492188 587.054688 C 82.90625 592.703125 85.441406 598.300781 89.4375 602.429688 C 93.382812 606.503906 98.195312 608.898438 102.980469 609.171875 C 107.972656 609.46875 112.792969 607.511719 116.910156 603.523438 L 250.484375 474.132812 C 257.171875 467.660156 261.066406 459.125 261.46875 450.105469 C 261.863281 441.132812 258.75 432.746094 252.691406 426.496094 C 250.132812 423.851562 247.199219 421.757812 244.039062 420.214844 Z M 244.03125 420.207031 " fill-opacity="1" fill-rule="nonzero"/></g></g></g><g clip-path="url(#9d7543d248)"><g clip-path="url(#170f98983b)"><g clip-path="url(#b21c2cab17)"><g clip-path="url(#2b2a5db153)"><path fill="#c7c3e6" d="M 260.945312 643.03125 C 258.792969 644.097656 257.898438 644.289062 257.515625 644.367188 C 257.253906 644.421875 256.933594 644.492188 256.691406 644.8125 C 256.59375 644.9375 256.527344 645.085938 256.492188 645.257812 C 256.289062 646.222656 256.480469 647.148438 256.992188 647.667969 C 257.332031 648.011719 257.785156 648.160156 258.242188 648.070312 C 260.730469 647.589844 262.199219 647.730469 263.171875 647.824219 C 264.023438 647.910156 264.828125 647.988281 265.375 647.269531 C 265.808594 646.695312 265.898438 645.84375 266.113281 643.785156 L 266.164062 643.324219 C 266.21875 642.792969 266.023438 642.332031 265.625 642.054688 C 265.285156 641.820312 264.496094 641.269531 260.945312 643.03125 Z M 260.945312 643.03125 " fill-opacity="1" fill-rule="nonzero"/></g></g></g></g><g clip-path="url(#fc3d936bcf)"><g clip-path="url(#d55fcf0e01)"><g clip-path="url(#ea445fdea3)"><g clip-path="url(#aabd68d251)"><path fill="#eb4b36" d="M 303.890625 666.488281 C 314.019531 676.441406 322.511719 678.070312 327.855469 677.691406 C 333.382812 677.292969 338.363281 674.535156 341.882812 669.917969 C 345.640625 664.992188 347.421875 658.328125 346.773438 651.640625 C 346.273438 646.4375 344.09375 638.789062 336.574219 631.90625 L 336.539062 631.871094 C 330.042969 626.597656 322.648438 625.078125 313.925781 627.222656 C 309.535156 628.296875 306.695312 630.546875 303.949219 632.722656 C 301.925781 634.324219 300.015625 635.835938 297.519531 636.90625 C 294.304688 638.28125 291.949219 636.71875 290.058594 635.464844 C 288.910156 634.703125 287.921875 634.046875 286.902344 634.1875 C 285.15625 634.421875 283.839844 635.71875 283.046875 636.765625 C 282.242188 637.816406 281.585938 639.128906 281.242188 640.359375 C 279.871094 645.371094 281.734375 646.375 284.820312 648.039062 C 287.550781 649.511719 291.675781 651.734375 296.675781 658.160156 C 298.238281 660.167969 302.09375 664.695312 303.890625 666.488281 Z M 327.851562 638.761719 C 333.859375 642.167969 339.28125 650.015625 336.988281 659.1875 C 336.464844 661.269531 335.652344 663.046875 334.566406 664.46875 C 330.921875 669.25 324.097656 669.929688 316.753906 666.246094 C 310.722656 663.210938 306.402344 658.300781 305.207031 653.105469 C 304.339844 649.363281 305.136719 645.738281 307.507812 642.628906 C 307.921875 642.082031 308.390625 641.550781 308.898438 641.042969 C 315.039062 634.917969 322.714844 635.847656 327.851562 638.761719 Z M 327.851562 638.761719 " fill-opacity="1" fill-rule="nonzero"/></g></g></g></g><g clip-path="url(#b31a4585b4)"><g clip-path="url(#11c4af4cce)"><g clip-path="url(#1d9dd07673)"><g clip-path="url(#1890bac80d)"><path fill="#eb4b36" d="M 253.664062 662.300781 C 253.445312 664.34375 252.804688 666.003906 251.648438 667.519531 C 250.363281 669.203125 248.539062 670.5625 246.613281 672.003906 C 244.214844 673.792969 241.492188 675.824219 239.117188 678.941406 C 237.726562 680.761719 236.597656 682.757812 235.671875 685.027344 C 234.257812 688.480469 235.15625 692.863281 236.109375 697.503906 C 236.417969 699.023438 236.742188 700.59375 236.980469 702.140625 C 238.34375 711.585938 245.21875 719.085938 254.933594 721.710938 C 265.164062 724.472656 275.792969 721.207031 282.007812 713.394531 C 282.171875 713.1875 282.339844 712.980469 282.5 712.769531 C 285.804688 708.4375 287.394531 702.933594 287.109375 696.859375 C 286.785156 690.019531 284.152344 682.894531 279.28125 675.675781 C 271.554688 664.230469 270.78125 660.164062 270.207031 657.199219 C 269.957031 655.871094 269.71875 654.617188 268.964844 653.046875 C 267.914062 650.824219 265.808594 650.902344 263.953125 650.96875 C 263.621094 650.976562 263.277344 650.992188 262.925781 650.992188 C 260.558594 650.996094 257.878906 652.140625 256.074219 653.003906 C 255.597656 653.226562 255.195312 653.554688 254.875 653.972656 C 253.890625 655.261719 253.851562 657.160156 253.808594 659.355469 C 253.785156 660.320312 253.769531 661.3125 253.664062 662.300781 Z M 263.171875 712.90625 C 258.941406 713.261719 254.753906 711.621094 251.066406 708.171875 C 245.75 703.101562 240.140625 692.636719 244.984375 686.28125 C 245.0625 686.183594 245.140625 686.082031 245.246094 685.957031 C 249.03125 681.011719 255.925781 676.660156 262.101562 678.789062 C 267.351562 680.597656 272.316406 682.300781 275.007812 689.640625 C 277.4375 696.089844 276.738281 702.53125 273.097656 707.3125 C 270.632812 710.539062 267.015625 712.582031 263.171875 712.90625 Z M 263.171875 712.90625 " fill-opacity="1" fill-rule="nonzero"/></g></g></g></g><g clip-path="url(#940fd4d6b6)"><g clip-path="url(#2840925cf6)"><g clip-path="url(#8d3179f13a)"><g clip-path="url(#6a76e8f82c)"><path fill="#c7c3e6" d="M 233.667969 615.160156 C 215.125 608.449219 197.609375 602.109375 194.488281 600.796875 L 194.449219 600.78125 L 194.410156 600.769531 C 193.683594 600.546875 193.027344 600.703125 192.644531 601.203125 C 192.347656 601.589844 192.277344 602.128906 192.460938 602.675781 C 196.097656 613.703125 216.53125 622.929688 230.058594 629.039062 C 231.960938 629.898438 233.757812 630.710938 235.289062 631.429688 C 253.433594 640.109375 257.175781 641.21875 259.878906 640.308594 C 260.71875 640.019531 261.457031 639.730469 262.167969 639.449219 C 265.742188 638.042969 268.101562 637.117188 276.304688 639.402344 C 276.777344 639.53125 277.460938 639.53125 278.03125 638.785156 C 278.320312 638.402344 278.570312 637.855469 278.949219 637.027344 C 279.28125 636.296875 279.695312 635.390625 280.296875 634.226562 C 280.484375 633.875 280.496094 633.414062 280.339844 632.964844 C 280.167969 632.484375 279.839844 632.109375 279.414062 631.929688 C 273.4375 629.554688 253.21875 622.238281 233.667969 615.160156 Z M 264.449219 630.886719 C 264.507812 631.753906 264.246094 632.589844 263.699219 633.308594 C 262.960938 634.277344 261.757812 634.941406 260.394531 635.128906 C 258.679688 635.363281 257.175781 634.671875 256.359375 633.273438 C 255.546875 631.875 255.648438 630.148438 256.621094 628.875 C 257.257812 628.039062 258.21875 627.417969 259.484375 627.023438 C 260.703125 626.640625 261.46875 627.144531 262.355469 627.722656 C 262.542969 627.84375 262.730469 627.964844 262.914062 628.078125 C 263.738281 628.695312 264.335938 629.167969 264.449219 630.886719 Z M 264.449219 630.886719 " fill-opacity="1" fill-rule="nonzero"/></g></g></g></g><g clip-path="url(#4557c8d482)"><g clip-path="url(#1075406bd4)"><g clip-path="url(#a36eb972c9)"><g clip-path="url(#e028ea55f7)"><path fill="#f5e38b" d="M 257.992188 629.695312 C 257.578125 630.238281 257.40625 630.875 257.503906 631.484375 C 257.574219 631.941406 257.839844 632.605469 258.671875 633.183594 C 259.867188 634.003906 261.3125 633.398438 262.066406 632.40625 C 262.613281 631.691406 262.78125 630.832031 262.511719 630.113281 C 262.3125 629.582031 261.796875 628.894531 260.484375 628.628906 C 259.613281 628.449219 258.613281 628.878906 257.992188 629.695312 Z M 257.992188 629.695312 " fill-opacity="1" fill-rule="nonzero"/></g></g></g></g><g clip-path="url(#3af56b58ce)"><g clip-path="url(#056ab77d57)"><g clip-path="url(#694a8e2ef5)"><g clip-path="url(#ff7fd102ee)"><path fill="#c7c3e6" d="M 259.074219 618.398438 L 259.332031 618.488281 C 261.953125 619.394531 268.890625 622.667969 270.953125 623.652344 C 271.128906 623.734375 271.230469 623.769531 271.230469 623.769531 L 271.277344 623.78125 C 271.699219 623.878906 272.125 623.726562 272.390625 623.378906 C 273.460938 621.972656 272.019531 613.996094 266.226562 589.253906 C 265.195312 584.867188 264.308594 581.078125 264.246094 580.460938 L 264.242188 580.414062 L 264.230469 580.367188 C 262.910156 574.046875 259.28125 565.527344 254.4375 561.75 L 254.398438 561.71875 C 253.105469 560.824219 252.839844 560.699219 252.550781 560.601562 L 252.269531 561.433594 L 252.503906 560.585938 C 251.5625 560.253906 250.851562 560.628906 250.527344 561.050781 C 250.410156 561.207031 250.324219 561.386719 250.285156 561.570312 C 249.113281 565.863281 255.59375 614.816406 255.757812 616.039062 C 255.886719 617.316406 257.578125 617.890625 259.074219 618.398438 Z M 259.074219 618.398438 " fill-opacity="1" fill-rule="nonzero"/></g></g></g></g><g clip-path="url(#1ebe8c168d)"><g clip-path="url(#57610df025)"><g clip-path="url(#dc808a7b0c)"><g clip-path="url(#2f840f6456)"><path fill="#000000" d="M 235.179688 676.144531 C 241.039062 668.988281 244.3125 669.101562 247.515625 664.605469 C 250.023438 661.054688 248.1875 655.378906 251.246094 651.484375 C 251.765625 650.820312 252.441406 649.777344 252.316406 648.886719 C 251.6875 644.417969 252.203125 643.976562 251.390625 643.570312 C 248.527344 642.3125 200.21875 625.59375 190.410156 608.3125 C 188.402344 604.84375 185.945312 599.488281 189.054688 597.609375 C 191.859375 595.855469 193.242188 593.957031 209.699219 600.28125 C 248.445312 614.671875 250.28125 614.714844 250.226562 612.835938 C 249.972656 610.082031 244.59375 580.144531 245.449219 561.195312 C 245.699219 554.375 258.453125 553.066406 264.335938 566.121094 C 268.75 576.003906 274.058594 594.285156 276 606.148438 C 278.570312 622.0625 276.800781 621.296875 277.023438 625.058594 C 277.070312 625.777344 276.683594 626.378906 282.773438 629.003906 C 284.675781 629.824219 284.929688 628.898438 288.90625 630.144531 C 297.191406 632.746094 294.605469 633.957031 303.082031 627.976562 C 313.082031 620.917969 322.960938 619.570312 333.027344 623.351562 C 347.09375 628.59375 353.664062 649.289062 348.519531 666.210938 C 343.171875 683.175781 327.808594 687.664062 309.171875 676.886719 C 299.796875 671.453125 294.085938 658.695312 284.496094 652.5 C 279.484375 649.273438 278.402344 648.679688 277.277344 646.789062 C 276.246094 645.066406 275.867188 643.175781 273.203125 642.753906 C 272.398438 642.625 270.828125 642.351562 270.484375 643.113281 C 267.644531 649.457031 271.660156 646.667969 273.492188 652.042969 C 275.484375 657.835938 276.652344 663.480469 283.035156 671.835938 C 293.796875 686.03125 296.007812 706.589844 284.160156 718.964844 C 272.277344 731.285156 249.8125 731.367188 238.039062 713.179688 C 231.753906 703.40625 226.207031 687.972656 235.179688 676.144531 Z M 281.328125 712.835938 C 287.734375 705.0625 288.972656 691.605469 278.550781 676.167969 C 267.429688 659.683594 270.539062 658.382812 268.171875 653.425781 C 267.214844 651.398438 265.152344 651.867188 262.929688 651.871094 C 260.808594 651.875 258.359375 652.886719 256.453125 653.796875 C 254.15625 654.886719 254.933594 658.640625 254.539062 662.390625 C 253.421875 672.777344 242.023438 671.789062 236.484375 685.359375 C 234.71875 689.65625 236.886719 695.816406 237.847656 702.011719 C 240.816406 722.59375 268.753906 728.65625 281.328125 712.835938 Z M 335.984375 632.550781 C 329.953125 627.660156 322.816406 625.941406 314.132812 628.078125 C 306.804688 629.871094 303.972656 635.09375 297.863281 637.714844 C 292.320312 640.082031 289.050781 634.777344 287.019531 635.054688 C 284.679688 635.371094 282.734375 638.269531 282.089844 640.59375 C 279.8125 648.902344 286.667969 643.867188 297.367188 657.625 C 298.902344 659.59375 302.722656 664.085938 304.507812 665.859375 C 335.929688 696.738281 360.65625 655.148438 335.984375 632.550781 Z M 194.148438 601.609375 C 193.394531 601.371094 193.105469 601.832031 193.292969 602.402344 C 197.324219 614.625 223.550781 624.945312 235.671875 630.636719 C 252.910156 638.890625 257.144531 640.300781 259.59375 639.480469 C 264.707031 637.714844 266.425781 635.738281 276.539062 638.558594 C 277.515625 638.828125 277.59375 637.523438 279.523438 633.824219 C 279.679688 633.519531 279.457031 632.898438 279.089844 632.742188 C 267.429688 628.113281 200.578125 604.3125 194.148438 601.609375 Z M 253.902344 562.445312 C 252.472656 561.449219 252.40625 561.484375 252.214844 561.414062 C 251.558594 561.183594 251.179688 561.507812 251.136719 561.78125 C 250.082031 564.910156 255.558594 608.160156 256.628906 615.941406 C 256.695312 616.71875 258.429688 617.25 259.617188 617.660156 C 262.722656 618.730469 271.464844 622.921875 271.480469 622.925781 C 274 623.519531 263.617188 583.015625 263.375 580.546875 C 262.152344 574.714844 258.714844 566.199219 253.902344 562.445312 Z M 265.289062 643.230469 C 265.425781 641.960938 262.699219 643.144531 261.332031 643.816406 C 257.742188 645.601562 257.425781 645.054688 257.351562 645.4375 C 257.128906 646.488281 257.53125 647.316406 258.078125 647.210938 C 265.203125 645.828125 264.648438 649.359375 265.289062 643.230469 Z M 265.289062 643.230469 " fill-opacity="1" fill-rule="nonzero"/></g></g></g></g><g clip-path="url(#bfc84c7327)"><g clip-path="url(#ef12793672)"><g clip-path="url(#0628a05489)"><g clip-path="url(#b4c15dcc30)"><path fill="#000000" d="M 244.546875 685.421875 C 248.707031 680 255.925781 675.734375 262.390625 677.960938 C 267.933594 679.867188 273.054688 681.757812 275.828125 689.332031 C 282.644531 707.425781 264.402344 721.839844 250.457031 708.808594 C 244.984375 703.585938 238.761719 692.398438 244.546875 685.421875 Z M 270.113281 703.800781 C 276.269531 697.363281 266.648438 681.789062 259.789062 681.523438 C 252.113281 681.226562 246.339844 689.414062 250.027344 701.167969 C 252.199219 708.148438 262.8125 712.265625 270.113281 703.800781 Z M 270.113281 703.800781 " fill-opacity="1" fill-rule="nonzero"/></g></g></g></g><g clip-path="url(#0442af0cad)"><g clip-path="url(#a964db4749)"><g clip-path="url(#7a1e214421)"><g clip-path="url(#017c5fce58)"><path fill="#000000" d="M 316.359375 667.03125 C 304.738281 661.1875 299.734375 648.972656 308.277344 640.421875 C 321.023438 627.714844 342.128906 642.238281 337.839844 659.402344 C 335.175781 670.003906 325.664062 671.695312 316.359375 667.03125 Z M 328.175781 643.808594 C 321.585938 637.886719 312.359375 639.714844 307.996094 647.695312 C 305.328125 652.472656 312.796875 666.046875 325.945312 664.910156 C 335.109375 664.121094 336.71875 650.878906 328.175781 643.808594 Z M 328.175781 643.808594 " fill-opacity="1" fill-rule="nonzero"/></g></g></g></g><g clip-path="url(#a1ba088cba)"><g clip-path="url(#1b627ffe1b)"><g clip-path="url(#4dca42fb19)"><g clip-path="url(#6a0f0f82ca)"><path fill="#000000" d="M 263.402344 627.347656 C 264.375 628.074219 265.1875 628.753906 265.324219 630.828125 C 265.496094 633.398438 263.410156 635.597656 260.511719 636 C 254.605469 636.800781 252.234375 628.355469 259.21875 626.1875 C 261.164062 625.574219 262.304688 626.707031 263.402344 627.347656 Z M 259.171875 632.457031 C 260.84375 633.609375 263.40625 630.117188 260.308594 629.484375 C 259.101562 629.238281 257.277344 631.152344 259.171875 632.457031 Z M 259.171875 632.457031 " fill-opacity="1" fill-rule="nonzero"/></g></g></g></g><path fill="#000000" d="M 453.609375 520.089844 L 453.609375 541.992188 L 415.59375 541.992188 L 415.59375 651.828125 L 389.636719 651.828125 L 389.636719 541.992188 L 351.609375 541.992188 L 351.609375 520.089844 Z M 453.609375 520.089844 " fill-opacity="1" fill-rule="nonzero"/><path fill="#000000" d="M 474.339844 651.828125 L 474.339844 520.089844 L 527.222656 520.089844 C 540.863281 520.089844 551.148438 523.230469 558.082031 529.503906 C 565.019531 535.785156 568.492188 544.449219 568.492188 555.503906 C 568.492188 563.5 566.464844 570.046875 562.414062 575.148438 C 558.363281 580.253906 552.308594 584.15625 544.25 586.859375 L 544.25 588.757812 C 548.40625 590.554688 551.753906 593.226562 554.300781 596.773438 C 556.855469 600.316406 559.277344 605.574219 561.554688 612.539062 L 574.707031 651.828125 L 547.949219 651.828125 L 535.074219 612.457031 C 533.746094 608.492188 532.253906 605.410156 530.601562 603.222656 C 528.949219 601.027344 526.84375 599.4375 524.289062 598.449219 C 521.742188 597.449219 518.425781 596.953125 514.347656 596.953125 L 500.378906 596.953125 L 500.378906 651.828125 Z M 524.082031 576.324219 C 536.6875 576.324219 542.992188 570.4375 542.992188 558.660156 C 542.992188 546.710938 536.6875 540.734375 524.082031 540.734375 L 500.378906 540.734375 L 500.378906 576.324219 Z M 524.082031 576.324219 " fill-opacity="1" fill-rule="nonzero"/><path fill="#000000" d="M 597.515625 520.089844 L 623.554688 520.089844 L 623.554688 651.828125 L 597.515625 651.828125 Z M 597.515625 520.089844 " fill-opacity="1" fill-rule="nonzero"/><path fill="#000000" d="M 681.75 651.828125 L 657.882812 651.828125 L 657.882812 520.089844 L 691.941406 520.089844 L 725.277344 616.957031 L 727.171875 616.957031 L 760.328125 520.089844 L 793.582031 520.089844 L 793.582031 651.828125 L 768.882812 651.828125 L 768.882812 564.792969 L 766.640625 564.417969 L 736.183594 651.828125 L 714.464844 651.828125 L 684.007812 564.417969 L 681.75 564.792969 Z M 681.75 651.828125 " fill-opacity="1" fill-rule="nonzero"/><path fill="#000000" d="M 851.78125 651.828125 L 827.914062 651.828125 L 827.914062 520.089844 L 861.96875 520.089844 L 895.304688 616.957031 L 897.199219 616.957031 L 930.355469 520.089844 L 963.609375 520.089844 L 963.609375 651.828125 L 938.910156 651.828125 L 938.910156 564.792969 L 936.667969 564.417969 L 906.214844 651.828125 L 884.492188 651.828125 L 854.035156 564.417969 L 851.78125 564.792969 Z M 851.78125 651.828125 " fill-opacity="1" fill-rule="nonzero"/><path fill="#000000" d="M 997.941406 651.828125 L 997.941406 520.089844 L 1050.824219 520.089844 C 1064.464844 520.089844 1074.75 523.230469 1081.679688 529.503906 C 1088.621094 535.785156 1092.09375 544.449219 1092.09375 555.503906 C 1092.09375 563.5 1090.0625 570.046875 1086.015625 575.148438 C 1081.960938 580.253906 1075.910156 584.15625 1067.851562 586.859375 L 1067.851562 588.757812 C 1072.003906 590.554688 1075.355469 593.226562 1077.902344 596.773438 C 1080.457031 600.316406 1082.875 605.574219 1085.15625 612.539062 L 1098.308594 651.828125 L 1071.546875 651.828125 L 1058.671875 612.457031 C 1057.34375 608.492188 1055.851562 605.410156 1054.203125 603.222656 C 1052.546875 601.027344 1050.441406 599.4375 1047.890625 598.449219 C 1045.339844 597.449219 1042.027344 596.953125 1037.949219 596.953125 L 1023.980469 596.953125 L 1023.980469 651.828125 Z M 1047.679688 576.324219 C 1060.285156 576.324219 1066.59375 570.4375 1066.59375 558.660156 C 1066.59375 546.710938 1060.285156 540.734375 1047.679688 540.734375 L 1023.980469 540.734375 L 1023.980469 576.324219 Z M 1047.679688 576.324219 " fill-opacity="1" fill-rule="nonzero"/></svg>